<?xml version="1.0" encoding="utf-8"?>
<!-- Generator: Adobe Illustrator 23.0.2, SVG Export Plug-In . SVG Version: 6.00 Build 0)  -->
<svg version="1.1" id="Layer_1" xmlns="http://www.w3.org/2000/svg" xmlns:xlink="http://www.w3.org/1999/xlink" x="0px" y="0px"
	 viewBox="0 0 683 94" style="enable-background:new 0 0 683 94;" xml:space="preserve">
<style type="text/css">
	.st0{fill:#FCC70B;}
	.st1{fill:#0B93B4;}
</style>
<g>
	<g>
		<path class="st0" d="M107.37,18.2h-26.3v68.9h-1.2V18.2h-26.5v-1.1h54V18.2z"/>
		<path class="st0" d="M160.21,87.1h-0.9c-0.3,0-0.5-0.17-0.6-0.5l-9.75-23.4h-36.9l-9.75,23.4c-0.1,0.33-0.33,0.5-0.7,0.5h-0.8
			l29.2-70h1L160.21,87.1z M148.56,62.2l-17.25-41.4c-0.17-0.37-0.31-0.72-0.42-1.05c-0.12-0.33-0.24-0.68-0.38-1.05
			c-0.13,0.37-0.26,0.72-0.38,1.05c-0.12,0.33-0.26,0.68-0.43,1.05l-17.25,41.4H148.56z"/>
		<path class="st0" d="M222.93,87.1h-1.1c-0.27,0-0.46-0.09-0.58-0.27c-0.12-0.18-0.22-0.33-0.32-0.43l-25.05-34.6
			c-0.07,0.1-0.13,0.2-0.17,0.3s-0.14,0.23-0.27,0.4l-24.7,33.9c-0.17,0.17-0.31,0.33-0.42,0.48c-0.12,0.15-0.27,0.23-0.48,0.23
			h-1.1l26.35-35.85L169.93,17.1h1.1c0.27,0,0.46,0.09,0.57,0.27c0.12,0.18,0.23,0.33,0.33,0.43l23.95,32.85
			c0.07-0.13,0.13-0.25,0.2-0.35c0.07-0.1,0.15-0.23,0.25-0.4l23.4-32.1c0.1-0.17,0.23-0.33,0.38-0.48s0.33-0.23,0.52-0.23h1.1
			l-25.05,34.05L222.93,87.1z"/>
		<path class="st0" d="M283.97,17.1c7.63,0,13.49,1.65,17.58,4.95c4.08,3.3,6.13,8.32,6.13,15.05c0,2.9-0.58,5.58-1.73,8.02
			c-1.15,2.45-2.77,4.56-4.88,6.33c-2.1,1.77-4.6,3.15-7.5,4.15s-6.1,1.5-9.6,1.5h-14.6v30h-1.2v-70H283.97z M283.97,56.1
			c3.43,0,6.53-0.49,9.3-1.48c2.77-0.98,5.13-2.33,7.07-4.05c1.95-1.72,3.46-3.73,4.52-6.02c1.07-2.3,1.6-4.78,1.6-7.45
			c0-6.23-1.88-10.96-5.63-14.17s-9.38-4.83-16.88-4.83h-14.6v38H283.97z"/>
		<path class="st0" d="M366.53,87.1h-0.8c-0.27,0-0.48-0.02-0.65-0.08c-0.17-0.05-0.38-0.22-0.65-0.52l-26.2-31.4
			c-0.27-0.33-0.54-0.62-0.83-0.85c-0.28-0.23-0.6-0.42-0.95-0.57c-0.35-0.15-0.77-0.25-1.25-0.3c-0.48-0.05-1.08-0.07-1.77-0.07
			h-10.9v33.8h-1.2v-70h16.2c7.3,0,12.91,1.42,16.83,4.25c3.92,2.83,5.88,7.25,5.88,13.25c0,2.83-0.55,5.39-1.65,7.67
			c-1.1,2.28-2.65,4.23-4.65,5.83s-4.39,2.85-7.18,3.75c-2.78,0.9-5.86,1.38-9.23,1.45c0.33,0.13,0.63,0.31,0.9,0.52
			c0.27,0.22,0.53,0.48,0.8,0.77L366.53,87.1z M322.53,52.3h14.1c3.43,0,6.52-0.41,9.27-1.23c2.75-0.82,5.1-1.98,7.05-3.5
			c1.95-1.52,3.45-3.37,4.5-5.55c1.05-2.18,1.57-4.66,1.57-7.42c0-5.7-1.85-9.88-5.55-12.52s-9.02-3.98-15.95-3.98h-15V52.3z"/>
		<path class="st0" d="M437.17,52.1c0,5.53-0.79,10.5-2.38,14.9c-1.58,4.4-3.8,8.14-6.65,11.23c-2.85,3.08-6.26,5.45-10.23,7.1
			s-8.35,2.48-13.15,2.48c-4.77,0-9.13-0.83-13.07-2.48c-3.95-1.65-7.35-4.02-10.2-7.1c-2.85-3.08-5.07-6.83-6.65-11.23
			c-1.58-4.4-2.38-9.37-2.38-14.9c0-5.5,0.79-10.46,2.38-14.88c1.58-4.42,3.8-8.17,6.65-11.27s6.25-5.48,10.2-7.15
			c3.95-1.67,8.31-2.5,13.07-2.5c4.8,0,9.18,0.82,13.15,2.47c3.97,1.65,7.38,4.03,10.23,7.13c2.85,3.1,5.07,6.86,6.65,11.28
			C436.38,41.59,437.17,46.57,437.17,52.1z M435.87,52.1c0-5.43-0.76-10.3-2.27-14.6c-1.52-4.3-3.64-7.95-6.38-10.95
			c-2.73-3-6.01-5.29-9.83-6.88c-3.82-1.58-8.02-2.38-12.63-2.38c-4.53,0-8.7,0.79-12.5,2.38c-3.8,1.58-7.07,3.88-9.82,6.88
			s-4.9,6.65-6.45,10.95c-1.55,4.3-2.33,9.17-2.33,14.6c0,5.43,0.78,10.29,2.33,14.58s3.7,7.92,6.45,10.9
			c2.75,2.98,6.02,5.27,9.82,6.85c3.8,1.58,7.97,2.38,12.5,2.38c4.6,0,8.81-0.79,12.63-2.38c3.82-1.58,7.09-3.87,9.83-6.85
			c2.73-2.98,4.86-6.62,6.38-10.9C435.11,62.39,435.87,57.53,435.87,52.1z"/>
		<path class="st0" d="M519.35,17.1v70h-1V20.2c0-0.17,0-0.33,0-0.48s0.02-0.31,0.05-0.48L487.75,72.6c-0.23,0.33-0.47,0.5-0.7,0.5
			h-0.3c-0.23,0-0.47-0.17-0.7-0.5L454.4,19.2c0.03,0.17,0.05,0.33,0.05,0.5c0,0.17,0,0.33,0,0.5v66.9h-1v-70h0.4
			c0.3,0,0.53,0.13,0.7,0.4l31.8,53.55c0.13,0.2,0.24,0.38,0.33,0.55c0.08,0.17,0.16,0.33,0.22,0.5c0.07-0.17,0.14-0.33,0.23-0.5
			c0.08-0.17,0.19-0.35,0.33-0.55l30.8-53.55c0.17-0.27,0.4-0.4,0.7-0.4H519.35z"/>
	</g>
	<g>
		<path class="st1" d="M533.45,82.94h9.18c2.92,0,4.27-0.77,5.94-3.38h1.67l-2.83,7.78h-20.88l0.4-2.38
			c15.03-11.97,20.34-18.36,20.34-24.61c0-3.46-1.94-5.76-5.08-5.76c-3.51,0-6.25,2.79-6.25,6.17c0,2.7,1.53,4.27,4.23,4.27
			c-0.54,1.49-2.02,2.39-3.87,2.39c-2.93,0-4.9-2.25-4.9-5.53c0-5.35,5.26-9.67,11.74-9.67c5.67,0,9.45,3.28,9.45,8.28
			c0,6.12-5.35,12.37-19.12,22.23V82.94z"/>
		<path class="st1" d="M556.9,75.74c0-11.52,8.46-23.49,16.56-23.49c5.17,0,8.64,4.59,8.64,11.47c0,11.43-8.73,24.07-16.6,24.07
			C560.36,87.8,556.9,82.94,556.9,75.74z M561.89,79.29c0,3.87,1.53,6.12,4.19,6.12c5.17,0,10.98-13.23,10.98-24.97
			c0-3.73-1.44-5.85-4.05-5.85C567.83,54.59,561.89,67.78,561.89,79.29z"/>
		<path class="st1" d="M595.76,75.29c-0.58,2.38-1.21,4.59-1.21,6.34c0,2.38,1.13,3.92,4.81,3.92l-0.5,1.8h-16.65l0.5-1.8
			c4.19,0,6.21-1.31,7.42-6.25l4.59-18.49c0.04-0.27,0.09-0.54,0.09-0.72c0-0.45-0.18-0.58-0.67-0.58c-0.99,0-3.1,0.72-6.57,0.72
			l0.27-1.89c5.17,0,8.82-2.88,12.06-6.07h1.67L595.76,75.29z"/>
		<path class="st1" d="M620.05,52.25c5.89,0,9.58,4.86,9.58,12.6c0,11.88-8.64,22.95-17.86,22.95c-4,0-7.02-2.07-7.02-4.81
			c0-1.53,0.95-2.56,2.43-2.56c1.26,0,2.21,0.81,2.21,2.48c0,1.93,0.54,2.88,2.38,2.88c4.81,0,9.63-5.49,11.61-13.27l-0.13-0.09
			c-1.98,1.21-3.96,1.8-6.17,1.8c-5.62,0-9.4-3.78-9.4-9.4C607.67,58.1,613.48,52.25,620.05,52.25z M625.09,61.79
			c0-4.86-1.67-7.51-4.77-7.51c-4.14,0-7.29,4.73-7.29,10.8c0,4.59,1.67,6.93,4.86,6.93C622.21,72.01,625.09,67.91,625.09,61.79z"/>
	</g>
</g>
</svg>
